<svg viewBox="0 0 72 72" xmlns="http://www.w3.org/2000/svg" role="img" aria-label="DynaPix">
  <defs>
    <linearGradient id="dynapixTeal" x1="0" y1="0" x2="1" y2="1">
      <stop offset="0" stop-color="#16808a"/>
      <stop offset="1" stop-color="#063f45"/>
    </linearGradient>
    <linearGradient id="dynapixCoral" x1="0" y1="0" x2="1" y2="1">
      <stop offset="0" stop-color="#ff735d"/>
      <stop offset="1" stop-color="#fe5945"/>
    </linearGradient>
  </defs>
  <path d="M11 9h39a5 5 0 0 1 5 5v6h-5v-5a1 1 0 0 0-1-1H15a4 4 0 0 0-4 4v36a4 4 0 0 0 4 4h33a2 2 0 0 0 2-2v-4h5v5a6 6 0 0 1-6 6H15A9 9 0 0 1 6 54V18a9 9 0 0 1 5-9Z" fill="url(#dynapixTeal)"/>
  <path d="M17 17h30a2 2 0 0 1 2 2v3h-5v-1H18a3 3 0 0 0-3 3v25l13-13a3 3 0 0 1 4 0l8 8 5-5a3 3 0 0 1 4 0l6 6v7H18a8 8 0 0 1-8-8V24a7 7 0 0 1 7-7Z" fill="url(#dynapixTeal)"/>
  <circle cx="24" cy="28" r="4.7" fill="url(#dynapixCoral)"/>
  <g fill="url(#dynapixTeal)">
    <rect x="53" y="17" width="6" height="6" rx="1"/>
    <rect x="60" y="11" width="4" height="4" rx=".8"/>
    <rect x="58" y="27" width="5" height="5" rx=".8"/>
    <rect x="50" y="31" width="4" height="4" rx=".8"/>
    <rect x="63" y="35" width="5" height="5" rx=".8"/>
    <rect x="55" y="42" width="5" height="5" rx=".8"/>
    <rect x="62" y="50" width="4" height="4" rx=".8"/>
  </g>
  <g fill="url(#dynapixCoral)">
    <rect x="63" y="20" width="5" height="5" rx=".8"/>
    <rect x="66" y="29" width="4" height="4" rx=".8"/>
    <rect x="57" y="36" width="4" height="4" rx=".8"/>
    <rect x="66" y="43" width="5" height="5" rx=".8"/>
    <rect x="58" y="55" width="4" height="4" rx=".8"/>
  </g>
</svg>